<?xml version="1.0" standalone="no"?>
<!DOCTYPE svg PUBLIC "-//W3C//DTD SVG 20010904//EN"
 "http://www.w3.org/TR/2001/REC-SVG-20010904/DTD/svg10.dtd">
<svg version="1.0" xmlns="http://www.w3.org/2000/svg"
 width="307.000000pt" height="307.000000pt" viewBox="0 0 307.000000 307.000000"
 preserveAspectRatio="xMidYMid meet">
<metadata>
Created by potrace 1.11, written by Peter Selinger 2001-2013
</metadata>
<g transform="translate(0.000000,307.000000) scale(0.100000,-0.100000)"
fill="#000000" stroke="none">
<path d="M1399 3065 c-2 -2 -29 -6 -59 -9 -72 -7 -97 -12 -208 -41 -372 -98
-708 -352 -909 -685 -107 -177 -161 -327 -208 -570 -13 -68 -12 -354 1 -445
88 -591 505 -1075 1074 -1248 81 -24 110 -31 172 -42 16 -3 40 -8 55 -11 16
-3 98 -7 183 -9 179 -4 267 6 425 46 211 54 459 184 614 324 301 271 468 586
521 985 12 94 4 340 -15 445 -113 625 -592 1111 -1219 1237 -90 18 -415 36
-427 23z"/>
</g>
</svg>
